<svg width="200" height="200" xmlns="http://www.w3.org/2000/svg">
    <g>
        <path d="M100 180q-40 0-68-28t-28-68 28-68 68-28 68 28 28 68-28 68-68 28z" fill="#FFC0CB"/>
        <path d="M100 150q-33 0-56.5-23.5t-23.5-56.5 23.5-56.5 56.5-23.5 56.5 23.5 23.5 56.5-23.5 56.5-56.5 23.5zm0-120q-20 0-34 14t-14 34 14 34 34 14 34-14 14-34-14-34-34-14z" fill="#FFC0CB"/>
        <path d="M100 100q-14 0-24-10t-10-24 10-24 24-10 24 10 10 24-10 24-24 10z" fill="#FFC0CB"/>
        <path d="M100 70q-5 0-9.5-4.5t-4.5-9.5 4.5-9.5 9.5-4.5 9.5 4.5 4.5 9.5-4.5 9.5-9.5 4.5z" fill="#FFC0CB"/>
    </g>
</svg>
